<?xml version="1.0" encoding="UTF-8" ?>
<svg xmlns="http://www.w3.org/2000/svg" viewBox="0 0 1200 900" width="1200" height="900">
  <!-- Define gradients -->
  <defs>
    <linearGradient id="headerGradient" x1="0%" y1="0%" x2="100%" y2="0%">
      <stop offset="0%" stop-color="#FFFFFF" stop-opacity="1"></stop>
      <stop offset="70%" stop-color="#FFFFFF" stop-opacity="1"></stop>
      <stop offset="70%" stop-color="#6366F1" stop-opacity="1"></stop>
      <stop offset="100%" stop-color="#6366F1" stop-opacity="1"></stop>
    </linearGradient>

    <linearGradient id="statGradient1" x1="0%" y1="0%" x2="100%" y2="0%">
      <stop offset="0%" stop-color="#6366F1" stop-opacity="1"></stop>
      <stop offset="100%" stop-color="#4F46E5" stop-opacity="1"></stop>
    </linearGradient>

    <linearGradient id="statGradient2" x1="0%" y1="0%" x2="100%" y2="0%">
      <stop offset="0%" stop-color="#10B981" stop-opacity="1"></stop>
      <stop offset="100%" stop-color="#14B8A6" stop-opacity="1"></stop>
    </linearGradient>

    <linearGradient id="statGradient3" x1="0%" y1="0%" x2="100%" y2="0%">
      <stop offset="0%" stop-color="#3B82F6" stop-opacity="1"></stop>
      <stop offset="100%" stop-color="#8B5CF6" stop-opacity="1"></stop>
    </linearGradient>

    <linearGradient id="chartGradient" x1="0%" y1="0%" x2="100%" y2="0%">
      <stop offset="0%" stop-color="#3B82F6" stop-opacity="1"></stop>
      <stop offset="100%" stop-color="#14B8A6" stop-opacity="1"></stop>
    </linearGradient>

    <filter id="dropShadow" x="-20%" y="-20%" width="140%" height="140%">
      <feGaussianBlur in="SourceAlpha" stdDeviation="3"></feGaussianBlur>
      <feOffset dx="0" dy="4" result="offsetblur"></feOffset>
      <feComponentTransfer>
        <feFuncA type="linear" slope="0.3"></feFuncA>
      </feComponentTransfer>
      <feMerge>
        <feMergeNode></feMergeNode>
        <feMergeNode in="SourceGraphic"></feMergeNode>
      </feMerge>
    </filter>

    <!-- Pie Chart Gradient -->
    <linearGradient id="pieGradient1" x1="0%" y1="0%" x2="100%" y2="0%">
      <stop offset="0%" stop-color="#6366F1" stop-opacity="1"></stop>
      <stop offset="100%" stop-color="#6366F1" stop-opacity="1"></stop>
    </linearGradient>
    <linearGradient id="pieGradient2" x1="0%" y1="0%" x2="100%" y2="0%">
      <stop offset="0%" stop-color="#10B981" stop-opacity="1"></stop>
      <stop offset="100%" stop-color="#10B981" stop-opacity="1"></stop>
    </linearGradient>
    <linearGradient id="pieGradient3" x1="0%" y1="0%" x2="100%" y2="0%">
      <stop offset="0%" stop-color="#3B82F6" stop-opacity="1"></stop>
      <stop offset="100%" stop-color="#3B82F6" stop-opacity="1"></stop>
    </linearGradient>
    <linearGradient id="pieGradient4" x1="0%" y1="0%" x2="100%" y2="0%">
      <stop offset="0%" stop-color="#14B8A6" stop-opacity="1"></stop>
      <stop offset="100%" stop-color="#14B8A6" stop-opacity="1"></stop>
    </linearGradient>
    <linearGradient id="pieGradient5" x1="0%" y1="0%" x2="100%" y2="0%">
      <stop offset="0%" stop-color="#8B5CF6" stop-opacity="1"></stop>
      <stop offset="100%" stop-color="#8B5CF6" stop-opacity="1"></stop>
    </linearGradient>
  </defs>

  <!-- Background -->
  <rect x="0" y="0" width="1200" height="900" fill="#111827"></rect>

  <!-- Header -->
  <rect x="40" y="40" width="1120" height="70" rx="12" ry="12" fill="#1F2937" filter="url(#dropShadow)"></rect>
  <rect x="60" y="63" width="180" height="24" rx="4" ry="4" fill="url(#headerGradient)"></rect>
  <circle cx="1120" cy="75" r="18" fill="#374151"></circle>

  <!-- Main Container -->
  <g id="mainContainer">
    <!-- Sidebar -->
    <rect x="40" y="130" width="200" height="730" rx="12" ry="12" fill="#1F2937" filter="url(#dropShadow)"></rect>

    <!-- Menu Items -->
    <rect x="40" y="180" width="180" height="46" rx="0" ry="0" fill="#6366F1"></rect>
    <rect x="44" y="198" width="70" height="10" rx="4" ry="4" fill="#FFFFFF" opacity="0.7"></rect>

    <rect x="60" y="240" width="70" height="10" rx="4" ry="4" fill="#9CA3AF" opacity="0.3"></rect>
    <rect x="60" y="290" width="70" height="10" rx="4" ry="4" fill="#9CA3AF" opacity="0.3"></rect>
    <rect x="60" y="340" width="70" height="10" rx="4" ry="4" fill="#9CA3AF" opacity="0.3"></rect>
    <rect x="60" y="390" width="70" height="10" rx="4" ry="4" fill="#9CA3AF" opacity="0.3"></rect>
    <rect x="60" y="440" width="70" height="10" rx="4" ry="4" fill="#9CA3AF" opacity="0.3"></rect>

    <!-- Content Area -->
    <g id="contentArea">
      <!-- Stat Cards -->
      <g id="statCards">
        <g id="statCard1" filter="url(#dropShadow)">
          <rect x="260" y="130" width="300" height="120" rx="12" ry="12" fill="#1F2937"></rect>
          <rect x="260" y="247" width="300" height="3" rx="0" ry="0" fill="url(#statGradient1)"></rect>
          <rect x="280" y="150" width="80" height="10" rx="4" ry="4" fill="#9CA3AF" opacity="0.3"></rect>
          <rect x="280" y="180" width="80" height="30" rx="6" ry="6" fill="#FFFFFF" opacity="0.7"></rect>
        </g>

        <g id="statCard2" filter="url(#dropShadow)">
          <rect x="580" y="130" width="300" height="120" rx="12" ry="12" fill="#1F2937"></rect>
          <rect x="580" y="247" width="300" height="3" rx="0" ry="0" fill="url(#statGradient2)"></rect>
          <rect x="600" y="150" width="80" height="10" rx="4" ry="4" fill="#9CA3AF" opacity="0.3"></rect>
          <rect x="600" y="180" width="80" height="30" rx="6" ry="6" fill="#FFFFFF" opacity="0.7"></rect>
        </g>

        <g id="statCard3" filter="url(#dropShadow)">
          <rect x="900" y="130" width="260" height="120" rx="12" ry="12" fill="#1F2937"></rect>
          <rect x="900" y="247" width="260" height="3" rx="0" ry="0" fill="url(#statGradient3)"></rect>
          <rect x="920" y="150" width="80" height="10" rx="4" ry="4" fill="#9CA3AF" opacity="0.3"></rect>
          <rect x="920" y="180" width="80" height="30" rx="6" ry="6" fill="#FFFFFF" opacity="0.7"></rect>
        </g>
      </g>

      <!-- Chart Row -->
      <g id="chartRow">
        <g id="lineChartCard" filter="url(#dropShadow)">
          <rect x="260" y="270" width="600" height="300" rx="12" ry="12" fill="#1F2937"></rect>
          <rect x="280" y="290" width="120" height="14" rx="4" ry="4" fill="#9CA3AF" opacity="0.3"></rect>

          <!-- Line Chart -->
          <line x1="280" y1="500" x2="840" y2="500" stroke="#374151" stroke-width="1"></line>

          <!-- Chart Points and Line -->
          <polyline points="280,450 350,430 420,400 490,410 560,360 630,350 700,360 770,340 840,320" fill="none" stroke="url(#chartGradient)" stroke-width="2"></polyline>

          <circle cx="280" cy="450" r="4" fill="#14B8A6" stroke="#14B8A6" stroke-width="2" stroke-opacity="0.2"></circle>
          <circle cx="350" cy="430" r="4" fill="#14B8A6" stroke="#14B8A6" stroke-width="2" stroke-opacity="0.2"></circle>
          <circle cx="420" cy="400" r="4" fill="#14B8A6" stroke="#14B8A6" stroke-width="2" stroke-opacity="0.2"></circle>
          <circle cx="490" cy="410" r="4" fill="#14B8A6" stroke="#14B8A6" stroke-width="2" stroke-opacity="0.2"></circle>
          <circle cx="560" cy="360" r="4" fill="#14B8A6" stroke="#14B8A6" stroke-width="2" stroke-opacity="0.2"></circle>
          <circle cx="630" cy="350" r="4" fill="#14B8A6" stroke="#14B8A6" stroke-width="2" stroke-opacity="0.2"></circle>
          <circle cx="700" cy="360" r="4" fill="#14B8A6" stroke="#14B8A6" stroke-width="2" stroke-opacity="0.2"></circle>
          <circle cx="770" cy="340" r="4" fill="#14B8A6" stroke="#14B8A6" stroke-width="2" stroke-opacity="0.2"></circle>
          <circle cx="840" cy="320" r="4" fill="#14B8A6" stroke="#14B8A6" stroke-width="2" stroke-opacity="0.2"></circle>
        </g>

        <g id="activityFeedCard" filter="url(#dropShadow)">
          <rect x="880" y="270" width="280" height="300" rx="12" ry="12" fill="#1F2937"></rect>
          <rect x="900" y="290" width="120" height="14" rx="4" ry="4" fill="#9CA3AF" opacity="0.3"></rect>

          <!-- Activity Items -->
          <rect x="900" y="330" width="230" height="1" stroke="#374151" stroke-width="1"></rect>
          <rect x="900" y="340" width="200" height="10" rx="4" ry="4" fill="#9CA3AF" opacity="0.2"></rect>

          <rect x="900" y="380" width="230" height="1" stroke="#374151" stroke-width="1"></rect>
          <rect x="900" y="390" width="200" height="10" rx="4" ry="4" fill="#9CA3AF" opacity="0.2"></rect>

          <rect x="900" y="430" width="230" height="1" stroke="#374151" stroke-width="1"></rect>
          <rect x="900" y="440" width="200" height="10" rx="4" ry="4" fill="#9CA3AF" opacity="0.2"></rect>

          <rect x="900" y="480" width="230" height="1" stroke="#374151" stroke-width="1"></rect>
          <rect x="900" y="490" width="200" height="10" rx="4" ry="4" fill="#9CA3AF" opacity="0.2"></rect>
        </g>
      </g>

      <!-- Pie Chart -->
      <g id="pieChartCard" filter="url(#dropShadow)">
        <rect x="260" y="590" width="900" height="270" rx="12" ry="12" fill="#1F2937"></rect>
        <rect x="280" y="610" width="120" height="14" rx="4" ry="4" fill="#9CA3AF" opacity="0.3"></rect>

        <!-- Pie Chart -->
        <g transform="translate(440, 720)">
          <!-- Pie Segments -->
          <path d="M0,0 L0,-90 A90,90 0 0,1 90,0 Z" fill="url(#pieGradient1)"></path>
          <path d="M0,0 L90,0 A90,90 0 0,1 0,90 Z" fill="url(#pieGradient2)"></path>
          <path d="M0,0 L0,90 A90,90 0 0,1 -90,0 Z" fill="url(#pieGradient3)"></path>
          <path d="M0,0 L-90,0 A90,90 0 0,1 -63.6,-63.6 Z" fill="url(#pieGradient4)"></path>
          <path d="M0,0 L-63.6,-63.6 A90,90 0 0,1 0,-90 Z" fill="url(#pieGradient5)"></path>

          <!-- Center Cutout -->
          <circle cx="0" cy="0" r="35" fill="#1F2937"></circle>
        </g>

        <!-- Legend -->
        <g transform="translate(600, 720)">
          <rect x="0" y="-60" width="16" height="16" rx="4" ry="4" fill="url(#pieGradient1)"></rect>
          <rect x="26" y="-56" width="60" height="8" rx="4" ry="4" fill="#9CA3AF" opacity="0.3"></rect>

          <rect x="0" y="-20" width="16" height="16" rx="4" ry="4" fill="url(#pieGradient2)"></rect>
          <rect x="26" y="-16" width="60" height="8" rx="4" ry="4" fill="#9CA3AF" opacity="0.3"></rect>

          <rect x="0" y="20" width="16" height="16" rx="4" ry="4" fill="url(#pieGradient3)"></rect>
          <rect x="26" y="24" width="60" height="8" rx="4" ry="4" fill="#9CA3AF" opacity="0.3"></rect>

          <rect x="130" y="-60" width="16" height="16" rx="4" ry="4" fill="url(#pieGradient4)"></rect>
          <rect x="156" y="-56" width="60" height="8" rx="4" ry="4" fill="#9CA3AF" opacity="0.3"></rect>

          <rect x="130" y="-20" width="16" height="16" rx="4" ry="4" fill="url(#pieGradient5)"></rect>
          <rect x="156" y="-16" width="60" height="8" rx="4" ry="4" fill="#9CA3AF" opacity="0.3"></rect>
        </g>
      </g>
    </g>
  </g>
</svg>